<?xml version="1.0" encoding="iso-8859-1"?>
<!-- Generator: Adobe Illustrator 19.1.0, SVG Export Plug-In . SVG Version: 6.00 Build 0)  -->
<svg version="1.1" id="Layer_1" xmlns="http://www.w3.org/2000/svg" xmlns:xlink="http://www.w3.org/1999/xlink" x="0px" y="0px"
	 viewBox="0 0 499.2 207" style="enable-background:new 0 0 499.2 207;" xml:space="preserve">
<line style="fill:none;stroke:#ECF0F1;stroke-miterlimit:10;" x1="61.773" y1="8.194" x2="61.773" y2="200.96"/>
<line style="fill:none;stroke:#ECF0F1;stroke-miterlimit:10;" x1="103.601" y1="8.194" x2="103.601" y2="200.96"/>
<line style="fill:none;stroke:#ECF0F1;stroke-miterlimit:10;" x1="145.431" y1="8.194" x2="145.431" y2="200.96"/>
<line style="fill:none;stroke:#ECF0F1;stroke-miterlimit:10;" x1="187.261" y1="8.194" x2="187.261" y2="200.96"/>
<line style="fill:none;stroke:#ECF0F1;stroke-miterlimit:10;" x1="229.091" y1="8.194" x2="229.091" y2="200.96"/>
<line style="fill:none;stroke:#ECF0F1;stroke-miterlimit:10;" x1="312.748" y1="8.194" x2="312.748" y2="200.96"/>
<line style="fill:none;stroke:#ECF0F1;stroke-miterlimit:10;" x1="396.407" y1="8.194" x2="396.407" y2="200.96"/>
<line style="fill:none;stroke:#ECF0F1;stroke-miterlimit:10;" x1="270.92" y1="8.194" x2="270.92" y2="200.96"/>
<line style="fill:none;stroke:#ECF0F1;stroke-miterlimit:10;" x1="354.58" y1="8.194" x2="354.58" y2="200.96"/>
<line style="fill:none;stroke:#ECF0F1;stroke-miterlimit:10;" x1="438.238" y1="8.194" x2="438.238" y2="200.96"/>
<polyline style="fill:none;stroke:#35495E;stroke-linecap:round;stroke-linejoin:round;stroke-miterlimit:10;" points="
	19.943,149.284 61.773,92.672 103.601,68.322 145.431,98.151 187.261,154.154 229.091,34.233 270.92,28.146 312.748,77.454 
	354.58,125.544 396.407,70.149 438.238,61.018 480.068,74.41 "/>
<polyline style="fill:none;stroke:#35495E;stroke-linecap:round;stroke-linejoin:round;stroke-miterlimit:10;" points="
	19.74,142.724 61.569,86.112 103.398,54.458 145.431,21.985 187.261,120.777 228.887,76.372 270.716,13.064 312.546,70.894 
	354.376,110.462 396.205,75.764 438.033,42.283 479.055,29.031 "/>
<polyline style="fill:none;stroke:#35495E;stroke-linecap:round;stroke-linejoin:round;stroke-miterlimit:10;" points="
	20.851,158.096 62.679,101.484 104.509,77.134 146.339,106.963 188.168,162.966 229.998,43.045 271.828,36.958 313.656,86.266 
	355.486,134.356 397.314,78.961 439.146,69.83 480.975,83.222 "/>
<polyline style="fill:none;stroke:#35495E;stroke-linecap:round;stroke-linejoin:round;stroke-miterlimit:10;" points="
	20.647,158.096 62.476,101.484 104.306,69.83 146.136,106.963 187.964,171.488 229.794,91.744 271.624,28.436 313.453,86.266 
	355.284,125.834 397.111,91.136 438.941,57.655 480.771,83.222 "/>
<polyline style="fill:none;stroke:#35495E;stroke-linecap:round;stroke-linejoin:round;stroke-miterlimit:10;" points="
	18.93,157.216 60.759,100.605 102.588,76.255 144.418,106.084 186.247,162.087 228.077,42.166 269.907,36.079 311.735,85.387 
	353.566,133.476 395.393,78.082 437.225,68.951 479.055,82.343 "/>
<polyline style="fill:none;stroke:#35495E;stroke-linecap:round;stroke-linejoin:round;stroke-miterlimit:10;" points="
	18.727,157.216 60.555,100.605 102.385,68.951 144.215,106.084 186.044,170.609 227.874,90.865 269.703,27.557 311.533,85.387 
	353.363,124.955 395.191,90.257 437.02,56.776 478.85,82.343 "/>
<polyline style="fill:none;stroke:#35495E;stroke-linecap:round;stroke-linejoin:round;stroke-miterlimit:10;" points="
	19.837,166.028 61.666,109.417 103.495,85.067 145.326,114.896 187.155,170.899 228.984,50.978 270.814,44.891 312.642,94.199 
	354.473,142.288 396.301,86.894 438.133,77.763 479.961,91.155 "/>
<polyline style="fill:none;stroke:#35495E;stroke-linecap:round;stroke-linejoin:round;stroke-miterlimit:10;" points="
	19.634,166.028 61.463,109.417 103.292,77.763 145.122,114.896 186.951,179.421 228.781,99.677 270.611,36.369 312.439,94.199 
	354.271,133.766 396.098,99.069 437.928,65.588 479.758,91.155 "/>
<polyline style="fill:none;stroke:#35495E;stroke-linecap:round;stroke-linejoin:round;stroke-miterlimit:10;" points="
	21.909,170.978 63.738,114.366 105.567,90.016 147.456,22.782 189.284,78.786 231.056,55.927 272.886,49.84 314.714,99.148 
	356.545,147.238 398.372,91.843 440.203,82.712 482.033,96.104 "/>
<polyline style="fill:none;stroke:#35495E;stroke-linecap:round;stroke-linejoin:round;stroke-miterlimit:10;" points="
	21.706,170.978 63.534,114.366 105.364,82.712 147.194,119.845 189.023,184.37 230.853,104.626 272.682,41.318 314.512,99.148 
	356.342,138.716 398.17,104.018 439.999,70.537 481.828,96.104 "/>
<polyline style="fill:none;stroke:#26B99A;stroke-linecap:round;stroke-linejoin:round;stroke-miterlimit:10;" points="
	22.816,179.79 64.645,123.178 106.474,98.828 148.304,128.657 190.134,184.66 231.963,64.739 273.793,58.652 315.621,107.96 
	357.452,156.05 399.28,100.655 441.112,91.524 482.94,104.916 "/>
<polyline style="fill:none;stroke:#35495E;stroke-linecap:round;stroke-linejoin:round;stroke-miterlimit:10;" points="
	22.613,179.79 64.442,123.178 106.271,91.524 148.101,128.657 189.93,193.182 231.759,113.438 273.59,50.13 315.418,107.96 
	357.25,147.528 399.077,112.83 440.907,79.349 482.737,104.916 "/>
<polyline style="fill:none;stroke:#26B99A;stroke-linecap:round;stroke-linejoin:round;stroke-miterlimit:10;" points="
	20.896,178.911 62.724,122.299 104.554,97.949 146.283,184.66 188.522,117.204 230.043,63.86 271.873,57.773 313.701,107.081 
	355.531,155.171 397.359,99.776 439.19,90.645 481.02,104.037 "/>
<polyline style="fill:none;stroke:#35495E;stroke-linecap:round;stroke-linejoin:round;stroke-miterlimit:10;" points="
	20.692,178.911 62.521,122.299 104.351,90.645 146.181,127.778 188.009,192.303 229.839,112.559 271.669,49.251 313.498,107.081 
	355.329,146.649 397.156,111.951 438.986,78.47 479.055,172.052 "/>
<polyline style="fill:none;stroke:#26B99A;stroke-linecap:round;stroke-linejoin:round;stroke-miterlimit:10;" points="
	21.803,187.723 63.632,131.111 105.461,106.761 147.291,136.59 189.121,192.593 230.95,72.672 272.779,66.585 314.608,115.893 
	356.439,163.982 398.266,108.588 438.238,140.209 481.927,112.849 "/>
<polyline style="fill:none;stroke:#26B99A;stroke-linecap:round;stroke-linejoin:round;stroke-miterlimit:10;" points="
	21.599,187.723 63.429,131.111 105.257,99.457 147.087,136.59 188.917,201.115 229.091,164.131 272.576,58.063 314.405,115.893 
	354.58,184.66 398.064,120.763 439.893,87.282 481.723,112.849 "/>
<rect x="351.604" y="153.353" style="opacity:0.8;fill:#E6E7E8;stroke:#26B99A;stroke-linecap:round;stroke-linejoin:round;stroke-miterlimit:10;" width="7.374" height="34.585"/>
</svg>
